<svg xmlns="http://www.w3.org/2000/svg" viewBox="0 0 179.307 55.829">
  <defs>
    <style>
      .cls-1 {
        fill: #070023;
      }
    </style>
  </defs>
  <g id="_12" data-name="12" transform="translate(0 -6.304)">
    <path id="Path_300" data-name="Path 300" class="cls-1" d="M12.064-13.52v-3.822H.182v3.822H3.874V0h4.5V-13.52Zm7.228,5.044a2.862,2.862,0,0,1,1.846.754,2.823,2.823,0,0,1,.806,1.9,2.564,2.564,0,0,1-.806,1.846,2.644,2.644,0,0,1-1.846.78,2.658,2.658,0,0,1-1.872-.78,2.686,2.686,0,0,1-.806-1.846,2.681,2.681,0,0,1,.806-1.9A2.875,2.875,0,0,1,19.292-8.476ZM26.26-5.824a5.744,5.744,0,0,0-1.794-4.264,7.342,7.342,0,0,0-5.2-1.924,7.257,7.257,0,0,0-5.174,1.924A5.744,5.744,0,0,0,12.3-5.824a5.8,5.8,0,0,0,1.794,4.29A6.968,6.968,0,0,0,19.266.39a6.973,6.973,0,0,0,5.2-1.924A5.8,5.8,0,0,0,26.26-5.824Zm2.392-13.13V0h4.16V-4.758L37.05,0h5.772L36.894-6.266l5.486-5.356H36.738L32.812-7.436V-18.954ZM56.082-5.486a6.507,6.507,0,0,0-1.846-4.888,6.367,6.367,0,0,0-4.472-1.586,6.544,6.544,0,0,0-4.758,1.69,6.2,6.2,0,0,0-1.742,4.5A6.087,6.087,0,0,0,44.98-1.378,6.591,6.591,0,0,0,49.79.39a6.316,6.316,0,0,0,4.732-1.612,5.224,5.224,0,0,0,1.4-2.392H51.948a1.936,1.936,0,0,1-.728.78,3.282,3.282,0,0,1-1.352.312,2.337,2.337,0,0,1-1.716-.572,2.936,2.936,0,0,1-.728-1.95h8.658Zm-8.528-1.95a2.372,2.372,0,0,1,.624-1.248,2.235,2.235,0,0,1,1.69-.624,2.424,2.424,0,0,1,1.716.624,2.789,2.789,0,0,1,.676,1.248ZM58.474,0h4.16V-6.24a2.673,2.673,0,0,1,.676-1.846,2.276,2.276,0,0,1,1.534-.546,1.742,1.742,0,0,1,1.326.494,3.337,3.337,0,0,1,.52,2.262V0h4.16V-7.384a4.005,4.005,0,0,0-1.092-3.25,4.7,4.7,0,0,0-3.432-1.248,4.383,4.383,0,0,0-3.692,1.716v-1.456h-4.16ZM8.112,31a9.418,9.418,0,0,0,6.656-2.626,8,8,0,0,0,2.262-6.006,8.466,8.466,0,0,0-2.418-6.318,9.673,9.673,0,0,0-6.89-2.392H1.82V31ZM6.318,17.48H7.41A5.052,5.052,0,0,1,11,18.572a5.184,5.184,0,0,1,1.352,3.8,4.724,4.724,0,0,1-1.326,3.562,5.179,5.179,0,0,1-3.8,1.248h-.91Zm13.182,1.9V31h4.16V19.378Zm-.26-4.836a2.34,2.34,0,1,0,2.34-2.34A2.33,2.33,0,0,0,19.24,14.542Zm6.526,15.5a8.574,8.574,0,0,0,4.68,1.352,6.043,6.043,0,0,0,4.29-1.456,3.884,3.884,0,0,0,1.17-2.886,3.287,3.287,0,0,0-.884-2.314,4.911,4.911,0,0,0-1.716-.91l-.754-.208c-.65-.182-.988-.182-1.378-.338a.677.677,0,0,1-.494-.65.623.623,0,0,1,.364-.572,1.757,1.757,0,0,1,.962-.234,5.757,5.757,0,0,1,2.184.572l1.4-2.652a9.592,9.592,0,0,0-3.718-.754,5.868,5.868,0,0,0-4.16,1.4,4.153,4.153,0,0,0-1.092,2.834,2.811,2.811,0,0,0,.754,2,3.739,3.739,0,0,0,2.028,1.014l1.092.26a2.594,2.594,0,0,1,1.092.416.617.617,0,0,1,.208.52.667.667,0,0,1-.208.546,1.764,1.764,0,0,1-1.066.312,5.414,5.414,0,0,1-1.612-.286,5.952,5.952,0,0,1-1.664-.858Zm21.06-2.782a3.147,3.147,0,0,1-2.132.78,2.824,2.824,0,0,1-2.132-.884,2.985,2.985,0,0,1-.728-1.95,2.829,2.829,0,0,1,.806-2,2.726,2.726,0,0,1,2.028-.806,3.708,3.708,0,0,1,2.158.754V19.664a5.963,5.963,0,0,0-2.7-.65,6.7,6.7,0,0,0-4.68,1.768,6.329,6.329,0,0,0-1.872,4.5,6.082,6.082,0,0,0,1.794,4.342A6.419,6.419,0,0,0,43.94,31.39a6.17,6.17,0,0,0,2.886-.65Zm8.892-4.732a2.862,2.862,0,0,1,1.846.754,2.823,2.823,0,0,1,.806,1.9,2.564,2.564,0,0,1-.806,1.846,2.605,2.605,0,0,1-3.718,0,2.577,2.577,0,0,1,0-3.744A2.875,2.875,0,0,1,55.718,22.524Zm6.968,2.652a5.744,5.744,0,0,0-1.794-4.264,7.342,7.342,0,0,0-5.2-1.924,7.257,7.257,0,0,0-5.174,1.924,6,6,0,0,0,0,8.554,6.968,6.968,0,0,0,5.174,1.924,6.973,6.973,0,0,0,5.2-1.924A5.8,5.8,0,0,0,62.686,25.176Zm2.392-5.8v7.254a4.178,4.178,0,0,0,1.092,3.094c1.378,1.482,3.51,1.664,5.252,1.664a6.635,6.635,0,0,0,5.018-1.638,3.989,3.989,0,0,0,1.118-3.12V19.378H73.4v6.5a2.155,2.155,0,0,1-.6,1.638,1.945,1.945,0,0,1-1.482.494,2.15,2.15,0,0,1-1.456-.442,2.229,2.229,0,0,1-.624-1.69v-6.5ZM80.418,31h4.16V24.76a2.673,2.673,0,0,1,.676-1.846,2.276,2.276,0,0,1,1.534-.546,1.742,1.742,0,0,1,1.326.494,3.337,3.337,0,0,1,.52,2.262V31h4.16V23.616a4.005,4.005,0,0,0-1.092-3.25,4.7,4.7,0,0,0-3.432-1.248,4.383,4.383,0,0,0-3.692,1.716V19.378h-4.16ZM102.6,22.784V19.378H100.23V15.556H96.07v3.822H94.744v3.406H96.07V31h4.16V22.784Z" transform="translate(76.711 26)"/>
    <ellipse id="Ellipse_24" data-name="Ellipse 24" class="cls-1" cx="6.175" cy="6.175" rx="6.175" ry="6.175" transform="translate(0 6.304)"/>
    <ellipse id="Ellipse_29" data-name="Ellipse 29" class="cls-1" cx="6.175" cy="6.175" rx="6.175" ry="6.175" transform="translate(6.303 28.043)"/>
    <ellipse id="Ellipse_32" data-name="Ellipse 32" class="cls-1" cx="6.175" cy="6.175" rx="6.175" ry="6.175" transform="translate(6.303 43.48)"/>
    <ellipse id="Ellipse_25" data-name="Ellipse 25" class="cls-1" cx="6.175" cy="6.175" rx="6.175" ry="6.175" transform="translate(21.74 12.608)"/>
    <ellipse id="Ellipse_27" data-name="Ellipse 27" class="cls-1" cx="6.175" cy="6.175" rx="6.175" ry="6.175" transform="translate(21.74 28.043)"/>
    <ellipse id="Ellipse_30" data-name="Ellipse 30" class="cls-1" cx="6.175" cy="6.175" rx="6.175" ry="6.175" transform="translate(21.74 43.48)"/>
    <ellipse id="Ellipse_26" data-name="Ellipse 26" class="cls-1" cx="6.175" cy="6.175" rx="6.175" ry="6.175" transform="translate(37.176 12.608)"/>
    <ellipse id="Ellipse_28" data-name="Ellipse 28" class="cls-1" cx="6.175" cy="6.175" rx="6.175" ry="6.175" transform="translate(37.176 28.043)"/>
    <ellipse id="Ellipse_31" data-name="Ellipse 31" class="cls-1" cx="6.175" cy="6.175" rx="6.175" ry="6.175" transform="translate(43.48 49.784)"/>
  </g>
</svg>
