<svg xmlns="http://www.w3.org/2000/svg" viewBox="0 0 185.033 28.311">
  <defs>
    <style>
      .cls-1 {
        fill: #070023;
      }

      .cls-2 {
        fill: none;
        stroke: #070023;
        stroke-width: 5px;
      }
    </style>
  </defs>
  <g id="_2" data-name="2" transform="translate(0 -7.336)">
    <g id="Group_18" data-name="Group 18" transform="translate(54.693 1)">
      <path id="Path_292" data-name="Path 292" class="cls-1" d="M5.624-27.056-.114,0h12.54a21.316,21.316,0,0,0,6.08-.532,8.574,8.574,0,0,0,6.118-8.322,5.4,5.4,0,0,0-3.876-5.51A6.211,6.211,0,0,0,25.8-20.786c0-6.042-5.51-6.27-9.918-6.27Zm4.788,4.6H15.2c1.938,0,4.674-.076,4.674,2.66,0,3.344-2.736,3.762-5.4,3.762H9.044Zm-2.2,10.412h5.016c2.394,0,5.586-.152,5.586,3.23,0,3.99-3.648,4.18-6.574,4.18H6.612Zm29.906-15.01H32.186L26.448,0H45.6l1.064-5.016H33.44ZM73.454-9.69H67.526c-.874,3.572-3.268,5.548-6.612,5.548-3.762,0-5.966-2.66-5.966-7.182,0-5.016,2.622-11.514,8.474-11.514,3.61,0,5.244,1.634,5.4,5.168h5.738v-.57c0-5.7-4.256-9.424-10.754-9.424-9.348,0-14.782,7.562-14.782,16.378C49.02-3.762,53.314.646,60.534.646,67.222.646,72.276-3.23,73.454-9.69Zm29.564-17.366H97.09l-2.2,10.374H83.866l2.2-10.374H80.142L74.4,0h5.928L82.8-11.666h11.02L91.352,0H97.28ZM101.5,0h5.624l3.914-19.038L118.522,0h5.966l5.852-27.056h-5.586L120.84-7.828l-7.41-19.228h-6.156Z" transform="translate(0 34)"/>
    </g>
    <line id="Line_51" data-name="Line 51" class="cls-2" x1="40.581" transform="translate(0 32.517)"/>
    <path id="Path_32" data-name="Path 32" class="cls-2" d="M40.581,0H0" transform="translate(3.841 21.496)"/>
    <path id="Path_33" data-name="Path 33" class="cls-2" d="M40.581,0H0" transform="translate(7.683 10.474)"/>
  </g>
</svg>
