<svg xmlns="http://www.w3.org/2000/svg" viewBox="0 0 183.955 44.671">
  <defs>
    <style>
      .cls-1 {
        fill: #070023;
      }
    </style>
  </defs>
  <g id="_3" data-name="3" transform="translate(-1.037 -13.77)">
    <path id="Path_297" data-name="Path 297" class="cls-1" d="M21.3-25.488c-2.988.105-7.154.105-10.107.105s-7.172,0-10.16-.105c.193,1.828.264,3.709.264,4.605,0,1.16-.035,2.2-.105,2.953h.826c.492-5.01,1.037-6.732,5.537-6.732H9.51V-4.184c0,2.918-.615,3.357-3.639,3.463V0C7.014-.07,9.035-.105,11.2-.105c1.951,0,4.025.035,5.291.105V-.721c-3.023-.105-3.639-.545-3.639-3.463V-24.662H14.8c4.5,0,5.027,1.723,5.537,6.732h.826c-.07-.756-.105-1.793-.105-2.953C21.059-21.779,21.129-23.66,21.3-25.488ZM28.846-28.2a11.487,11.487,0,0,1-3.744.51c-.721,0-1.477-.035-2.232-.105v.756c2.092,0,2.742,1,2.742,3.164V-3.34c0,2-.756,2.584-2.742,2.584V0c.826-.035,2.742-.141,4.324-.141s3.27.105,4.025.141V-.756c-1.723,0-2.373-.58-2.373-2.584v-8.033c0-3.814,2.092-6.521,5.045-6.521,2.584,0,2.918,1.916,2.918,4.148V-3.34c0,2-.65,2.584-2.391,2.584V0c.756-.035,2.461-.141,4.043-.141s3.48.105,4.324.141V-.756c-1.986,0-2.742-.58-2.742-2.584v-9.615c0-2.461-.369-3.744-1.266-4.729a4.886,4.886,0,0,0-3.814-1.354,6.2,6.2,0,0,0-6.117,4.307Zm30.41,23.59C58.008-1.916,56.127-1,53.965-1c-2.76,0-5.5-2.883-5.5-7.822a18.977,18.977,0,0,1,.123-2.3h11.25c0-5.432-2.514-7.91-6.732-7.91-4.939,0-8.139,3.885-8.139,10.213C44.965-3.3,48.023.51,53.244.51a7.043,7.043,0,0,0,6.732-4.834ZM52.963-18.352c2.408,0,3.533,3.023,3.41,6.539h-7.84C48.92-16.348,50.818-18.352,52.963-18.352Zm47.373-7.137c-1.125.07-2.918.105-4.57.105H94.061L86.326-4.605l-7.91-20.883c-.791.07-2.021.105-3.076.105-1.213,0-2.549-.035-3.34-.105v.721c2.443.105,2.918.475,2.918,3.094v17.49c0,2.637-.475,3.357-2.918,3.463V0c.791-.07,2.127-.105,3.34-.105,1.23,0,2.813.035,3.674.105V-.721c-2.795-.105-3.27-.826-3.27-3.463v-19L84.814.176h.58L94.061-23.08V-3.814c0,2.619-.457,2.988-2.9,3.094V0c1-.07,2.725-.105,4.605-.105,1.652,0,3.445.035,4.57.105V-.721c-2.443-.105-2.918-.475-2.918-3.094V-21.674c0-2.619.475-2.988,2.918-3.094Zm10.3,6.451a9.276,9.276,0,0,0-5.045,1.354,3.209,3.209,0,0,0-1.687,2.566,1.976,1.976,0,0,0,1.951,2.232,1.883,1.883,0,0,0,2.109-1.951,2.222,2.222,0,0,0-1.687-2.2,4.516,4.516,0,0,1,3.568-1.283c1.863,0,3.34.6,3.34,3.621v2.232c0,1.441-1.9,2.057-4.307,3.059-3.6,1.512-5.8,2.777-5.8,5.625,0,2.813,2.162,4.025,4.57,4.025a6.281,6.281,0,0,0,5.537-3.2c0,1.688.58,3.2,3.094,3.2a4.817,4.817,0,0,0,3.287-1.318l-.4-.615a2.449,2.449,0,0,1-1.617.756c-.826,0-1.107-.545-1.107-1.705v-10c0-2.549-.3-3.885-1.441-5.045A6.166,6.166,0,0,0,110.637-19.037ZM113.186-3.92c-1.213,1.969-2.619,2.725-4.061,2.725-1.652,0-2.883-1-2.883-3.164,0-2.777,1.916-3.814,3.5-4.57,2.268-1.107,3.059-1.477,3.445-2.057Zm18.65-15.117c-2.514,0-4.465,2.514-5.221,4.605v-4.5a12.01,12.01,0,0,1-3.744.492c-.721,0-1.477-.035-2.232-.105v.756c2.092,0,2.742,1.02,2.742,3.182V-3.34c0,2-.756,2.584-2.742,2.584V0c.826-.035,2.6-.141,4.254-.141,2.232,0,4.43.105,5.537.141V-.756c-2.373,0-3.814-.615-3.814-2.953v-7.629c0-2.672,1.986-6.768,5.01-6.768a.873.873,0,0,1,.756.352,2.334,2.334,0,0,0-1.23,1.951,1.821,1.821,0,0,0,1.916,1.863,2.1,2.1,0,0,0,2.057-2.268A3.011,3.011,0,0,0,131.836-19.037Zm13.588,7.506,4.377-4.605a5.045,5.045,0,0,1,3.234-1.687v-.721c-.721.07-1.934.141-3.129.141-1.037,0-2.812-.07-4.061-.141v.721c1.512,0,2.654.352,2.654,1.23a3.261,3.261,0,0,1-1.143,1.986l-2.672,2.76a4.717,4.717,0,0,1-3.094,1.494V-28.23a11.487,11.487,0,0,1-3.744.51c-.721,0-1.477-.035-2.232-.105v.756c2.092,0,2.742,1,2.742,3.164V-3.34c0,2-.756,2.584-2.742,2.584V0c.826-.035,2.707-.141,4.359-.141,1.512,0,3.234.105,3.99.141V-.756c-1.723,0-2.373-.58-2.373-2.584V-9.615A2.922,2.922,0,0,1,144.3-8.033l4.131,6.047a.972.972,0,0,1,.211.545c0,.4-.422.686-1.107.686V0c.756-.035,2.479-.141,3.99-.141,1.09,0,2.373.105,2.918.141V-.756c-1.072-.141-1.687-.756-2.514-1.881Zm24.205,6.926C168.381-1.916,166.5-1,164.338-1c-2.76,0-5.5-2.883-5.5-7.822a18.977,18.977,0,0,1,.123-2.3h11.25c0-5.432-2.514-7.91-6.732-7.91-4.939,0-8.139,3.885-8.139,10.213,0,5.52,3.059,9.334,8.279,9.334a7.043,7.043,0,0,0,6.732-4.834Zm-6.293-13.746c2.408,0,3.533,3.023,3.41,6.539h-7.84C159.293-16.348,161.191-18.352,163.336-18.352Zm15.4-.158v-6.012a10.577,10.577,0,0,1-3.234.51v5.5h-3.463v.721H175.5V-5.73c0,2.566.352,3.973,1.406,5.045a4.363,4.363,0,0,0,3.41,1.2c2.918,0,4.184-2.162,4.676-4.975l-.7-.176c-.756,2.813-1.811,3.85-3.252,3.85s-2.3-.791-2.3-3.059V-17.789h5.326v-.721Z" transform="translate(0 42)"/>
    <path id="Path_296" data-name="Path 296" class="cls-1" d="M-47.97-4.878a1.9,1.9,0,0,0-.68-.5,1.835,1.835,0,0,0-.661-.126,2.208,2.208,0,0,0-.9.175,2.049,2.049,0,0,0-.688.486,2.207,2.207,0,0,0-.445.724,2.485,2.485,0,0,0-.158.891,2.74,2.74,0,0,0,.158.945,2.22,2.22,0,0,0,.445.747,2.073,2.073,0,0,0,.688.5,2.161,2.161,0,0,0,.9.18,1.645,1.645,0,0,0,.751-.185,2.051,2.051,0,0,0,.68-.59l.936.666A2.55,2.55,0,0,1-48-.108a3.282,3.282,0,0,1-1.323.27,3.724,3.724,0,0,1-1.354-.239,3.091,3.091,0,0,1-1.062-.675,3.1,3.1,0,0,1-.7-1.049,3.537,3.537,0,0,1-.252-1.359,3.69,3.69,0,0,1,.252-1.39,3.12,3.12,0,0,1,.7-1.067,3.057,3.057,0,0,1,1.062-.68,3.724,3.724,0,0,1,1.354-.238,3.106,3.106,0,0,1,1.2.229,2.8,2.8,0,0,1,1.03.779Zm5.418,1.206q.243,0,.486-.023A1.492,1.492,0,0,0-41.62-3.8a.76.76,0,0,0,.328-.261.83.83,0,0,0,.126-.49A.783.783,0,0,0-41.283-5a.727.727,0,0,0-.306-.256,1.409,1.409,0,0,0-.418-.113,3.813,3.813,0,0,0-.445-.027h-.981v1.728Zm-2.016-2.7h2.214a4.511,4.511,0,0,1,.887.085,2.27,2.27,0,0,1,.76.293,1.53,1.53,0,0,1,.531.558,1.8,1.8,0,0,1,.2.891,1.775,1.775,0,0,1-.383,1.161,1.641,1.641,0,0,1-1.093.567L-39.762,0H-41.13l-1.476-2.7h-.828V0h-1.134Zm8.838,3.645-2.394-3.645H-36.7l1.566,2.538,1.584-2.538h1.35L-34.6-2.727V0H-35.73Zm7.542-.882q.243,0,.5-.018a1.548,1.548,0,0,0,.482-.108.855.855,0,0,0,.36-.27.806.806,0,0,0,.139-.5.8.8,0,0,0-.126-.472.835.835,0,0,0-.324-.27,1.367,1.367,0,0,0-.441-.122,4.241,4.241,0,0,0-.468-.027h-.81v1.791Zm-1.818-2.763h2.142a4.293,4.293,0,0,1,.886.09,2.184,2.184,0,0,1,.751.3,1.547,1.547,0,0,1,.518.567,1.837,1.837,0,0,1,.193.886,1.981,1.981,0,0,1-.207.972,1.481,1.481,0,0,1-.558.571,2.331,2.331,0,0,1-.815.274,6.3,6.3,0,0,1-.967.072h-.81V0h-1.134Zm8.415,1.026h-1.953V-6.372h5.04v1.026h-1.953V0h-1.134Zm6.318,2.115a2.74,2.74,0,0,0,.158.945,2.22,2.22,0,0,0,.445.747,2.073,2.073,0,0,0,.689.5,2.161,2.161,0,0,0,.9.18,2.192,2.192,0,0,0,.9-.18,2.061,2.061,0,0,0,.693-.5,2.22,2.22,0,0,0,.446-.747,2.74,2.74,0,0,0,.158-.945,2.485,2.485,0,0,0-.158-.891,2.207,2.207,0,0,0-.446-.724,2.038,2.038,0,0,0-.693-.486,2.24,2.24,0,0,0-.9-.175,2.208,2.208,0,0,0-.9.175,2.049,2.049,0,0,0-.689.486,2.207,2.207,0,0,0-.445.724A2.485,2.485,0,0,0-15.273-3.231Zm-1.188.072a3.69,3.69,0,0,1,.252-1.39,3.12,3.12,0,0,1,.7-1.067A3.057,3.057,0,0,1-14.45-6.3,3.724,3.724,0,0,1-13.1-6.534a3.786,3.786,0,0,1,1.368.22,2.99,2.99,0,0,1,1.071.671,3.1,3.1,0,0,1,.7,1.062A3.655,3.655,0,0,1-9.7-3.2a3.537,3.537,0,0,1-.252,1.359,3.117,3.117,0,0,1-.7,1.053,3.207,3.207,0,0,1-1.071.689A3.789,3.789,0,0,1-13.1.162,3.724,3.724,0,0,1-14.45-.077a3.091,3.091,0,0,1-1.062-.675,3.1,3.1,0,0,1-.7-1.049A3.537,3.537,0,0,1-16.461-3.159ZM-2.637-4.878a1.9,1.9,0,0,0-.68-.5,1.835,1.835,0,0,0-.661-.126,2.208,2.208,0,0,0-.9.175,2.049,2.049,0,0,0-.689.486,2.207,2.207,0,0,0-.445.724,2.485,2.485,0,0,0-.157.891,2.74,2.74,0,0,0,.157.945,2.22,2.22,0,0,0,.445.747,2.073,2.073,0,0,0,.689.5,2.161,2.161,0,0,0,.9.18,1.645,1.645,0,0,0,.752-.185,2.051,2.051,0,0,0,.679-.59l.936.666a2.55,2.55,0,0,1-1.053.864,3.282,3.282,0,0,1-1.323.27A3.724,3.724,0,0,1-5.341-.077,3.091,3.091,0,0,1-6.4-.752,3.1,3.1,0,0,1-7.1-1.8a3.537,3.537,0,0,1-.252-1.359A3.69,3.69,0,0,1-7.1-4.549a3.12,3.12,0,0,1,.7-1.067A3.057,3.057,0,0,1-5.341-6.3a3.724,3.724,0,0,1,1.354-.238,3.106,3.106,0,0,1,1.2.229,2.8,2.8,0,0,1,1.031.779ZM5.868-2.34a2.621,2.621,0,0,1-.2,1.04,2.33,2.33,0,0,1-.54.788,2.375,2.375,0,0,1-.81.5A2.874,2.874,0,0,1,3.3.162,2.874,2.874,0,0,1,2.286-.014a2.424,2.424,0,0,1-.814-.5A2.248,2.248,0,0,1,.932-1.3,2.675,2.675,0,0,1,.738-2.34V-6.372H1.872v4a1.815,1.815,0,0,0,.072.49,1.378,1.378,0,0,0,.238.473,1.275,1.275,0,0,0,.441.355,1.49,1.49,0,0,0,.68.14,1.49,1.49,0,0,0,.679-.14,1.275,1.275,0,0,0,.441-.355,1.378,1.378,0,0,0,.239-.473,1.815,1.815,0,0,0,.072-.49v-4H5.868ZM10.89-3.672q.243,0,.486-.023a1.492,1.492,0,0,0,.446-.108.76.76,0,0,0,.328-.261.83.83,0,0,0,.126-.49A.783.783,0,0,0,12.159-5a.727.727,0,0,0-.306-.256,1.409,1.409,0,0,0-.418-.113,3.814,3.814,0,0,0-.446-.027h-.981v1.728Zm-2.016-2.7h2.214a4.511,4.511,0,0,1,.887.085,2.27,2.27,0,0,1,.76.293,1.53,1.53,0,0,1,.531.558,1.8,1.8,0,0,1,.2.891,1.774,1.774,0,0,1-.382,1.161,1.641,1.641,0,0,1-1.094.567L13.68,0H12.312L10.836-2.7h-.828V0H8.874Zm9.3,2.7q.243,0,.486-.023A1.492,1.492,0,0,0,19.1-3.8a.76.76,0,0,0,.328-.261.83.83,0,0,0,.126-.49A.783.783,0,0,0,19.44-5a.727.727,0,0,0-.306-.256,1.409,1.409,0,0,0-.419-.113A3.813,3.813,0,0,0,18.27-5.4h-.981v1.728Zm-2.016-2.7h2.214a4.511,4.511,0,0,1,.887.085,2.27,2.27,0,0,1,.76.293,1.53,1.53,0,0,1,.531.558,1.8,1.8,0,0,1,.2.891,1.774,1.774,0,0,1-.382,1.161,1.641,1.641,0,0,1-1.094.567L20.961,0H19.593L18.117-2.7h-.828V0H16.155ZM26.937-2.43l-.981-2.592-1,2.592ZM25.5-6.372h.981L29.223,0h-1.3l-.594-1.458H24.57L23.994,0H22.725Zm6.048,0h1.5l3.087,4.734.018.018h-.018l.018-.018V-6.372h1.134V0h-1.44L32.7-4.887h-.018V0H31.545ZM44.694-4.878a1.9,1.9,0,0,0-.68-.5,1.835,1.835,0,0,0-.661-.126,2.208,2.208,0,0,0-.9.175,2.049,2.049,0,0,0-.688.486,2.207,2.207,0,0,0-.445.724,2.485,2.485,0,0,0-.158.891,2.74,2.74,0,0,0,.158.945,2.22,2.22,0,0,0,.445.747,2.073,2.073,0,0,0,.688.5,2.161,2.161,0,0,0,.9.18,1.645,1.645,0,0,0,.751-.185,2.051,2.051,0,0,0,.68-.59l.936.666a2.55,2.55,0,0,1-1.053.864,3.282,3.282,0,0,1-1.323.27A3.724,3.724,0,0,1,41.99-.077a3.091,3.091,0,0,1-1.062-.675,3.1,3.1,0,0,1-.7-1.049,3.537,3.537,0,0,1-.252-1.359,3.69,3.69,0,0,1,.252-1.39,3.12,3.12,0,0,1,.7-1.067A3.057,3.057,0,0,1,41.99-6.3a3.724,3.724,0,0,1,1.354-.238,3.106,3.106,0,0,1,1.2.229,2.8,2.8,0,0,1,1.03.779Zm4.959,2.151L47.259-6.372h1.422l1.566,2.538,1.584-2.538h1.35L50.787-2.727V0H49.653Z" transform="translate(93.583 58.278)"/>
  </g>
</svg>
