<svg xmlns="http://www.w3.org/2000/svg" viewBox="0 0 180.792 26.604">
  <defs>
    <style>
      .cls-1 {
        fill: #070023;
      }
    </style>
  </defs>
  <g id="_7" data-name="7" transform="translate(-0.828 -7.828)">
    <path id="Path_294" data-name="Path 294" class="cls-1" d="M3.168-2.628C3.168-.792,3.96,0,5.8,0h6.3a12.137,12.137,0,0,0,7.02-1.872,6.532,6.532,0,0,0,2.772-5.8,5.745,5.745,0,0,0-4.032-5.8v-.072a6.17,6.17,0,0,0,2.988-5.472c0-4.32-3.456-6.732-8.748-6.732H.828v5.4h2.34ZM9.612-20.34H12.06a2.056,2.056,0,0,1,2.3,2.2,2.147,2.147,0,0,1-2.2,2.376H9.612Zm0,9.612h3.132A2.392,2.392,0,0,1,15.264-8.1a2.477,2.477,0,0,1-2.556,2.7H10.4a.691.691,0,0,1-.792-.792ZM34.632,0V-20.34H36.72a.691.691,0,0,1,.792.792v1.4h5.58v-5.112c0-1.836-.648-2.484-2.484-2.484h-18.4c-1.836,0-2.484.648-2.484,2.484v5.112h5.58v-1.4a.691.691,0,0,1,.792-.792h2.088V0ZM41-13.14a13.389,13.389,0,0,0,3.744,9.72A13.042,13.042,0,0,0,54.5.432a16.548,16.548,0,0,0,6.732-1.584,14.174,14.174,0,0,0,2.2-1.4,8.769,8.769,0,0,0,1.8-1.62L61.956-8.784l-.324.36a10.4,10.4,0,0,1-7.02,2.916,6.451,6.451,0,0,1-4.9-2.232,7.785,7.785,0,0,1-2.016-5.4c0-4.5,2.844-7.092,6.768-7.092a6.7,6.7,0,0,1,2.7.54c.828.324,1.26.828,1.26,1.512v1.4h5.76V-20.16c0-2.268-1.62-4-3.816-4.824a17.416,17.416,0,0,0-6.048-1.188,13.142,13.142,0,0,0-9.54,3.744A12.512,12.512,0,0,0,41-13.14ZM63.612-3.384A12.668,12.668,0,0,0,72.648.432a9.254,9.254,0,0,0,6.66-2.3,7.429,7.429,0,0,0,2.484-5.652c0-4.176-2.916-6.264-5.832-7.56-2.916-1.44-5.832-1.98-5.832-3.6,0-1.116,1.188-1.728,2.628-1.728,1.3,0,2.52.648,2.52,1.512v1.116h5.76v-2.808a4.336,4.336,0,0,0-1.368-3.168A7.5,7.5,0,0,0,76.5-25.632a12.592,12.592,0,0,0-3.672-.54,10.045,10.045,0,0,0-6.552,2.16,6.873,6.873,0,0,0-2.628,5.58,7.763,7.763,0,0,0,4.1,6.66c1.152.612,2.3,1.188,3.42,1.692,2.3.972,4.14,1.872,4.14,2.88,0,1.26-.864,1.908-2.592,1.908a8.182,8.182,0,0,1-4.788-1.944,10.619,10.619,0,0,1-1.116-1.08l-3.564,4.5ZM94.9,0V-20.34h2.088a.691.691,0,0,1,.792.792v1.4h5.58v-5.112c0-1.836-.648-2.484-2.484-2.484h-18.4c-1.836,0-2.484.648-2.484,2.484v5.112h5.58v-1.4a.691.691,0,0,1,.792-.792h2.088V0Zm15.3,0V-8.676h.864c1.332,0,1.872.216,2.3.972l3.024,5.8C117.144-.36,118.116,0,120.024,0h3.528V-5.4h-.432a1.808,1.808,0,0,1-1.764-.828l-1.62-3.1a3.146,3.146,0,0,0-1.584-1.548v-.072l.4-.216a7.054,7.054,0,0,0,2.016-1.872,7.873,7.873,0,0,0,1.368-4.608c0-5.076-3.42-8.1-8.5-8.1H101.412v5.4h2.34V0Zm0-20.34h2.34c1.872,0,2.808,1.044,2.808,3.1,0,2.124-.972,3.168-2.916,3.168H110.2ZM124.128-2.628c0,1.836.792,2.628,2.628,2.628h12.1c1.836,0,2.628-.792,2.628-2.628V-7.6h-5.76v1.4a.691.691,0,0,1-.792.792h-3.564a.691.691,0,0,1-.792-.792V-10.26h7.344v-5.4h-7.344v-4.68h3.492a.691.691,0,0,1,.792.792v1.4h5.76v-4.968c0-1.836-.792-2.628-2.628-2.628h-16.2v5.4h2.34Zm18.432,0c0,1.836.792,2.628,2.628,2.628h12.1c1.836,0,2.628-.792,2.628-2.628V-7.6h-5.76v1.4a.691.691,0,0,1-.792.792H149.8A.691.691,0,0,1,149-6.192V-10.26h7.344v-5.4H149v-4.68H152.5a.691.691,0,0,1,.792.792v1.4h5.76v-4.968c0-1.836-.792-2.628-2.628-2.628h-16.2v5.4h2.34ZM173.16,0V-20.34h2.088a.691.691,0,0,1,.792.792v1.4h5.58v-5.112c0-1.836-.648-2.484-2.484-2.484h-18.4c-1.836,0-2.484.648-2.484,2.484v5.112h5.58v-1.4a.691.691,0,0,1,.792-.792h2.088V0Z" transform="translate(0 34)"/>
  </g>
</svg>
