<svg xmlns="http://www.w3.org/2000/svg" viewBox="0 0 201.378 47.837">
  <defs>
    <style>
      .cls-1 {
        fill: #070023;
      }
    </style>
  </defs>
  <g id="_8" data-name="8" transform="translate(-32.145 -29.644)">
    <path id="Path_299" data-name="Path 299" class="cls-1" d="M-70.37-22.165c-8.06,0-13.547,5.425-13.547,12.4A10.229,10.229,0,0,0-73.687.465a13.9,13.9,0,0,0,7.13-1.922l-1.488-3.286A10.535,10.535,0,0,1-72.974-3.41,6.062,6.062,0,0,1-79.36-9.765c0-4.309,2.79-8.556,8.556-8.556a10.405,10.405,0,0,1,5.022,1.333l2.263-3.162A11.769,11.769,0,0,0-70.37-22.165ZM-53.413.465A12.273,12.273,0,0,0-41.261-12.028,9.734,9.734,0,0,0-51.336-22.165,12.59,12.59,0,0,0-63.829-9.672,10.035,10.035,0,0,0-53.413.465Zm.248-3.844c-3.875,0-6.138-2.666-6.138-6.355,0-4.061,2.79-8.587,7.44-8.587,3.875,0,6.107,2.728,6.107,6.355C-45.756-7.905-48.577-3.379-53.165-3.379ZM-35.65-21.7-39.525,0h4.34l3.875-21.7Zm9.207,0L-30.318,0h4.4l1.86-10.633.651-4.681h.062l2.077,4.65L-16.616,0h4.371L-8.37-21.7h-4.464L-14.6-11.594l-.713,4.774h-.093l-1.953-4.743L-22.1-21.7ZM.992-9.765A10.168,10.168,0,0,0,11.253.465a12.95,12.95,0,0,0,9.052-3.813l1.519-8.4H12.462l-.62,3.441H17.3l-.651,3.5A8.236,8.236,0,0,1,11.935-3.41,6.011,6.011,0,0,1,5.549-9.765c0-4.216,2.79-8.556,8.37-8.556a13.92,13.92,0,0,1,5.766,1.3l2.2-3.1a13.731,13.731,0,0,0-7.347-2.046C6.479-22.165.992-16.74.992-9.765ZM27.311-21.7,24.955-8.153a8.262,8.262,0,0,0-.124,1.488C24.831-2.79,27.559,0,32.767,0,38.5,0,42.005-3.41,42.873-8.153L45.291-21.7H41.075L38.6-8.06A5.316,5.316,0,0,1,33.17-3.968c-2.542,0-4.03-1.426-4.03-3.379A6.053,6.053,0,0,1,29.2-8.06L31.589-21.7ZM50-21.7,46.128,0h4.34l1.488-8.432h4.123L58.993,0h4.743L60.295-8.928c3.131-1.116,5.394-2.945,5.394-7.037A5.926,5.926,0,0,0,59.675-21.7Zm3.689,3.968h5.642a2.22,2.22,0,0,1,1.984,2.294A2.966,2.966,0,0,1,58.342-12.4H52.669ZM70.68-21.7,68.324-8.153A8.262,8.262,0,0,0,68.2-6.665C68.2-2.79,70.928,0,76.136,0c5.735,0,9.238-3.41,10.106-8.153L88.66-21.7H84.444L81.964-8.06a5.316,5.316,0,0,1-5.425,4.092c-2.542,0-4.03-1.426-4.03-3.379a6.053,6.053,0,0,1,.062-.713L74.958-21.7Z" transform="translate(116.062 77.016)"/>
    <path id="Path_298" data-name="Path 298" class="cls-1" d="M3.007-33.356,1.333-23.87H-8.091l-.992,5.642H.341L-1.333-8.742h5.7l1.674-9.486h9.486l.992-5.642H7.037l1.674-9.486Z" transform="translate(217 63)"/>
  </g>
</svg>
