<svg xmlns="http://www.w3.org/2000/svg" viewBox="0 0 146.816 52.008">
  <defs>
    <style>
      .cls-1 {
        fill: #070023;
      }
    </style>
  </defs>
  <g id="_10" data-name="10" transform="translate(-2.4 -13.216)">
    <path id="Path_302" data-name="Path 302" class="cls-1" d="M2.4-22.464h9.76A8.351,8.351,0,0,1,17.616-20.8a5.227,5.227,0,0,1,2.032,4.224q0,3.808-4.448,5.152a5.6,5.6,0,0,1,3.616,1.888,5.477,5.477,0,0,1,1.344,3.68,5.2,5.2,0,0,1-1.968,4.272A8.534,8.534,0,0,1,12.7,0H2.4ZM7.872-18.3v4.864h3.584a2.852,2.852,0,0,0,1.9-.608,2.233,2.233,0,0,0,.72-1.808,2.283,2.283,0,0,0-.72-1.824,2.8,2.8,0,0,0-1.9-.624Zm0,14.144H12a2.647,2.647,0,0,0,1.856-.672,2.387,2.387,0,0,0,.736-1.856,2.551,2.551,0,0,0-.7-1.888,2.468,2.468,0,0,0-1.824-.7H7.872ZM22.432-18.3v-4.16H40.16v4.16H34.016V0H28.544V-18.3ZM45.456-3.056a11,11,0,0,1-3.344-8.24,11,11,0,0,1,3.344-8.24,11.291,11.291,0,0,1,8.176-3.248A11.54,11.54,0,0,1,60.288-20.8a10.342,10.342,0,0,1,4.064,5.5H57.824a4.3,4.3,0,0,0-4.1-2.464A5.718,5.718,0,0,0,49.3-16a6.684,6.684,0,0,0-1.616,4.7,6.684,6.684,0,0,0,1.616,4.7,5.718,5.718,0,0,0,4.432,1.76,4.3,4.3,0,0,0,4.1-2.464h6.528a10.342,10.342,0,0,1-4.064,5.5A11.54,11.54,0,0,1,53.632.192,11.291,11.291,0,0,1,45.456-3.056Zm27.12.064a2.892,2.892,0,0,1-.864,2.128A2.892,2.892,0,0,1,69.584,0a2.892,2.892,0,0,1-2.128-.864,2.892,2.892,0,0,1-.864-2.128,2.892,2.892,0,0,1,.864-2.128,2.892,2.892,0,0,1,2.128-.864,2.892,2.892,0,0,1,2.128.864A2.892,2.892,0,0,1,72.576-2.992ZM16,6.472v4.16H7.872v4.832H15.04v4.16H7.872V24.84H16V29H2.4V6.472Zm24.288.064L33.184,17.8,40.256,29H34.048L29.92,22.472,26.112,29H19.9l7.072-11.232L19.9,6.536h6.208L30.24,13.1l3.84-6.56Zm21.088,6.88A7.087,7.087,0,0,1,59.744,17.8a6.107,6.107,0,0,1-2.576,1.776,10.827,10.827,0,0,1-4.048.688H49.728V29H44.256V6.536H53.12A8.608,8.608,0,0,1,59.2,8.552,6.393,6.393,0,0,1,61.376,13.416ZM49.728,16.1H53.12a2.507,2.507,0,0,0,2.688-2.672,2.728,2.728,0,0,0-.736-1.968A2.579,2.579,0,0,0,53.12,10.7H49.728ZM78.272,6.472v4.16H70.144v4.832h7.168v4.16H70.144V24.84h8.128V29h-13.6V6.472ZM88.448,20.264V29H82.976V6.536H91.84a8.608,8.608,0,0,1,6.08,2.016,6.393,6.393,0,0,1,2.176,4.864,7,7,0,0,1-1.184,3.808,6.462,6.462,0,0,1-3.872,2.624l5.5,9.152h-6.4l-5.056-8.736Zm0-9.568V16.1H91.84a2.507,2.507,0,0,0,2.688-2.672,2.728,2.728,0,0,0-.736-1.968A2.579,2.579,0,0,0,91.84,10.7Zm14.368,0V6.536h17.728V10.7H114.4V29h-5.472V10.7Zm28.608-.16a2.544,2.544,0,0,0-1.68.544,1.921,1.921,0,0,0-.656,1.568A2.261,2.261,0,0,0,129.7,14.3a3.972,3.972,0,0,0,1.584.96q.976.336,2.176.64a24.52,24.52,0,0,1,2.384.736A10.46,10.46,0,0,1,138,17.7a4.7,4.7,0,0,1,1.584,1.808,6,6,0,0,1,.608,2.8,6.272,6.272,0,0,1-2.32,4.88,8.941,8.941,0,0,1-6.112,2.032,9.608,9.608,0,0,1-6.112-1.824,6.21,6.21,0,0,1-2.32-5.184h5.824q.224,2.688,2.752,2.688a2.622,2.622,0,0,0,1.856-.624,2.068,2.068,0,0,0,.672-1.584,2.122,2.122,0,0,0-.608-1.568,4.229,4.229,0,0,0-1.584-.96q-.976-.352-2.176-.656a22,22,0,0,1-2.384-.752,11.649,11.649,0,0,1-2.16-1.072,4.571,4.571,0,0,1-1.584-1.792,5.92,5.92,0,0,1-.608-2.768A6.134,6.134,0,0,1,125.664,8.1a9.192,9.192,0,0,1,5.968-1.888A9.672,9.672,0,0,1,137.5,7.864a6.251,6.251,0,0,1,2.336,5.2h-5.952a3,3,0,0,0-.784-1.872A2.275,2.275,0,0,0,131.424,10.536Zm17.792,15.472a2.951,2.951,0,1,1-.864-2.128A2.892,2.892,0,0,1,149.216,26.008Z" transform="translate(0 36)"/>
  </g>
</svg>
