<svg xmlns="http://www.w3.org/2000/svg" viewBox="0 0 137.925 29.479">
  <defs>
    <style>
      .cls-1 {
        fill: #070023;
      }
    </style>
  </defs>
  <g id="_11" data-name="11" transform="translate(-20.62 -15.808)">
    <path id="Path_303" data-name="Path 303" class="cls-1" d="M3.075,0V-28.782h7.011V0ZM18.84-3.916a14.09,14.09,0,0,1-4.285-10.558A14.09,14.09,0,0,1,18.84-25.031a14.467,14.467,0,0,1,10.476-4.161,14.786,14.786,0,0,1,8.528,2.542A13.251,13.251,0,0,1,43.05-19.6H34.686a5.507,5.507,0,0,0-5.248-3.157A7.326,7.326,0,0,0,23.76-20.5a8.563,8.563,0,0,0-2.071,6.027A8.563,8.563,0,0,0,23.76-8.446a7.326,7.326,0,0,0,5.678,2.255,5.507,5.507,0,0,0,5.248-3.157H43.05A13.251,13.251,0,0,1,37.843-2.3,14.786,14.786,0,0,1,29.315.246,14.467,14.467,0,0,1,18.84-3.916ZM66.154-8.446a8.563,8.563,0,0,0,2.07-6.027,8.563,8.563,0,0,0-2.07-6.027,7.15,7.15,0,0,0-5.535-2.255A7.15,7.15,0,0,0,55.083-20.5a8.563,8.563,0,0,0-2.07,6.027,8.563,8.563,0,0,0,2.07,6.027,7.15,7.15,0,0,0,5.535,2.255A7.15,7.15,0,0,0,66.154-8.446ZM50.164-3.9a14.157,14.157,0,0,1-4.285-10.578,14.09,14.09,0,0,1,4.285-10.558,14.492,14.492,0,0,1,10.5-4.161,14.353,14.353,0,0,1,10.455,4.161,14.16,14.16,0,0,1,4.243,10.558A14.192,14.192,0,0,1,71.094-3.9,14.36,14.36,0,0,1,60.639.287,14.429,14.429,0,0,1,50.164-3.9Z" transform="translate(17.545 45)"/>
    <circle id="Ellipse_22" data-name="Ellipse 22" class="cls-1" cx="6.5" cy="6.5" r="6.5" transform="translate(105.545 23.196)"/>
    <circle id="Ellipse_23" data-name="Ellipse 23" class="cls-1" cx="6.5" cy="6.5" r="6.5" transform="translate(125.545 23.196)"/>
    <path id="Path_34" data-name="Path 34" class="cls-1" d="M6.5,0A6.5,6.5,0,1,1,0,6.5,6.5,6.5,0,0,1,6.5,0Z" transform="translate(145.545 23.196)"/>
  </g>
</svg>
