<svg xmlns="http://www.w3.org/2000/svg" viewBox="0 0 175.292 19.058">
  <defs>
    <style>
      .cls-1 {
        fill: #070023;
      }
    </style>
  </defs>
  <g id="_4" data-name="4" transform="translate(-26.379 -10.163)">
    <path id="Path_293" data-name="Path 293" class="cls-1" d="M4.9,0H2.379V-18.629H4.9ZM32.8-3.848a.481.481,0,0,1,.364.169l1,1.079A7.97,7.97,0,0,1,31.389-.533a9.5,9.5,0,0,1-3.945.741,9.223,9.223,0,0,1-3.64-.7,8.006,8.006,0,0,1-2.8-1.95,8.815,8.815,0,0,1-1.794-3.01,11.242,11.242,0,0,1-.637-3.861,10.844,10.844,0,0,1,.663-3.861,8.836,8.836,0,0,1,1.865-3.016,8.342,8.342,0,0,1,2.879-1.957,9.581,9.581,0,0,1,3.705-.7,9.026,9.026,0,0,1,3.51.637,8.836,8.836,0,0,1,2.678,1.729l-.832,1.157a.681.681,0,0,1-.2.214.578.578,0,0,1-.332.085,1.031,1.031,0,0,1-.572-.253,8.69,8.69,0,0,0-.884-.565,6.864,6.864,0,0,0-1.365-.565,6.9,6.9,0,0,0-2.015-.253,6.77,6.77,0,0,0-2.639.5A5.761,5.761,0,0,0,22.978-14.7a6.688,6.688,0,0,0-1.346,2.314,9.233,9.233,0,0,0-.481,3.081,8.987,8.987,0,0,0,.5,3.107,6.86,6.86,0,0,0,1.365,2.307,5.769,5.769,0,0,0,2.041,1.437,6.5,6.5,0,0,0,2.542.494,10.484,10.484,0,0,0,1.5-.1,6.131,6.131,0,0,0,1.235-.306,5.2,5.2,0,0,0,1.053-.526,7.5,7.5,0,0,0,.969-.761A.672.672,0,0,1,32.8-3.848ZM64-9.308a10.753,10.753,0,0,1-.663,3.842,8.8,8.8,0,0,1-1.872,3.01A8.367,8.367,0,0,1,58.559-.5a9.8,9.8,0,0,1-3.75.7,9.749,9.749,0,0,1-3.744-.7,8.381,8.381,0,0,1-2.9-1.957,8.8,8.8,0,0,1-1.872-3.01,10.753,10.753,0,0,1-.663-3.842,10.753,10.753,0,0,1,.663-3.841,8.867,8.867,0,0,1,1.872-3.016,8.412,8.412,0,0,1,2.9-1.97,9.67,9.67,0,0,1,3.744-.7,9.718,9.718,0,0,1,3.75.7,8.4,8.4,0,0,1,2.905,1.97,8.867,8.867,0,0,1,1.872,3.016A10.753,10.753,0,0,1,64-9.308Zm-2.587,0a9.467,9.467,0,0,0-.468-3.081A6.517,6.517,0,0,0,59.618-14.7a5.754,5.754,0,0,0-2.08-1.45,7.061,7.061,0,0,0-2.73-.507,7.026,7.026,0,0,0-2.717.507A5.816,5.816,0,0,0,50-14.7a6.464,6.464,0,0,0-1.333,2.307A9.467,9.467,0,0,0,48.2-9.308a9.409,9.409,0,0,0,.468,3.075A6.472,6.472,0,0,0,50-3.933,5.747,5.747,0,0,0,52.091-2.49a7.106,7.106,0,0,0,2.717.5,7.142,7.142,0,0,0,2.73-.5,5.686,5.686,0,0,0,2.08-1.443,6.525,6.525,0,0,0,1.326-2.3A9.409,9.409,0,0,0,61.412-9.308Zm18.772-7.267v6.513h7.657v2.054H80.184V0H77.662V-18.629H89.141v2.054ZM109.616-2a5.2,5.2,0,0,0,2.067-.39,4.335,4.335,0,0,0,1.54-1.092,4.776,4.776,0,0,0,.962-1.677,6.628,6.628,0,0,0,.332-2.145V-18.629h2.509V-7.306a8.5,8.5,0,0,1-.513,2.99,6.947,6.947,0,0,1-1.469,2.385,6.717,6.717,0,0,1-2.333,1.58,8,8,0,0,1-3.094.572,8,8,0,0,1-3.094-.572,6.785,6.785,0,0,1-2.34-1.58,6.9,6.9,0,0,1-1.476-2.385,8.5,8.5,0,0,1-.514-2.99V-18.629H104.7v11.31a6.628,6.628,0,0,0,.332,2.145A4.776,4.776,0,0,0,106-3.5a4.392,4.392,0,0,0,1.547,1.1A5.174,5.174,0,0,0,109.616-2Zm37.089-16.627V0h-1.261a1.084,1.084,0,0,1-.5-.1,1.264,1.264,0,0,1-.4-.351L133.77-14.495q.026.325.039.637t.013.585V0h-2.21V-18.629h1.3a1.776,1.776,0,0,1,.286.02.732.732,0,0,1,.208.065.79.79,0,0,1,.182.13,1.994,1.994,0,0,1,.2.215L144.56-4.173q-.026-.338-.046-.656t-.02-.6v-13.2Zm30.966,9.321a10.49,10.49,0,0,1-.663,3.809,8.447,8.447,0,0,1-1.872,2.938A8.333,8.333,0,0,1,172.23-.67,10.134,10.134,0,0,1,168.48,0h-6.955V-18.629h6.955a10.134,10.134,0,0,1,3.751.67,8.288,8.288,0,0,1,2.906,1.9,8.515,8.515,0,0,1,1.872,2.944A10.49,10.49,0,0,1,177.671-9.308Zm-2.587,0a9.35,9.35,0,0,0-.468-3.068,6.466,6.466,0,0,0-1.326-2.288,5.655,5.655,0,0,0-2.08-1.43,7.225,7.225,0,0,0-2.73-.494h-4.433V-2.041h4.433a7.225,7.225,0,0,0,2.73-.494,5.692,5.692,0,0,0,2.08-1.424,6.4,6.4,0,0,0,1.326-2.282A9.35,9.35,0,0,0,175.084-9.308Z" transform="translate(24 29)"/>
  </g>
</svg>
