<svg xmlns="http://www.w3.org/2000/svg" viewBox="0 0 166.544 27.181">
  <defs>
    <style>
      .cls-1, .cls-2 {
        fill: #070023;
      }

      .cls-2 {
        opacity: 0.8;
      }
    </style>
  </defs>
  <g id="_5" data-name="5" transform="translate(-1)">
    <path id="Path_295" data-name="Path 295" class="cls-1" d="M5.148-15.418V-18.46H2.288v3.042ZM2.132-1.768C2.132-.52,2.652,0,3.874,0H7.02V-2.782H5.98a.5.5,0,0,1-.572-.572v-8.138c0-1.222-.52-1.768-1.742-1.768H.52v2.808H1.56a.5.5,0,0,1,.572.572ZM12.974,0V-6.084a6.457,6.457,0,0,1,.234-1.768,3.654,3.654,0,0,1,3.588-2.7c1.56,0,2.08.936,2.08,2.7v6.084C18.876-.52,19.4,0,20.644,0h3.12V-2.782H22.75a.5.5,0,0,1-.572-.572V-8.528c0-3.354-1.534-5.044-4.628-5.044a5.042,5.042,0,0,0-4.68,2.756h-.052l.026-.572v-.39c0-.988-.572-1.482-1.742-1.482H8.06v2.808H9.1a.5.5,0,0,1,.572.572V0Zm15.86,0V-3.3h-3.2V0Zm9.23,0L40.3-7.566A12.729,12.729,0,0,0,40.638-9h.052L41-7.566,43.264,0h3.718l3.172-9.984a.663.663,0,0,1,.7-.468h.39V-13.26H48.984c-1.118,0-1.638.338-1.872,1.352L45.162-4.55a8.875,8.875,0,0,0-.26,1.4H44.85l-.286-1.4L42.12-13.208H39.208L36.738-4.55a13.592,13.592,0,0,0-.312,1.4h-.052l-.234-1.4-1.95-7.358c-.286-1.014-.754-1.352-1.872-1.352H30.056v2.808h.364a.675.675,0,0,1,.728.468L34.294,0ZM52.1-3.64A3.588,3.588,0,0,0,53.378-.754,4.777,4.777,0,0,0,56.5.312a4.562,4.562,0,0,0,4.108-2.34h.052v.572C60.658-.494,61.2,0,62.322,0h2.99V-2.782h-1.04a.5.5,0,0,1-.572-.572v-4.94c0-3.328-1.586-5.278-5.824-5.278a9.562,9.562,0,0,0-2.834.442,2.421,2.421,0,0,0-1.95,2.288v1.4h3.094v-.7c0-.65.936-.884,1.768-.884,1.69,0,2.444.728,2.444,2.522v.182h-.416a13.488,13.488,0,0,0-3.692.39,7.9,7.9,0,0,0-2.054.728A4,4,0,0,0,52.1-3.64Zm3.276-.338c0-1.378,1.482-2.08,4.446-2.08h.6v.364A3.689,3.689,0,0,1,59.54-3.3,2.649,2.649,0,0,1,57.382-2.21,1.82,1.82,0,0,1,55.38-3.978Zm11.83,2.21C67.21-.52,67.73,0,68.952,0H72.1V-2.782h-1.04a.5.5,0,0,1-.572-.572V-16.692c0-1.222-.52-1.768-1.742-1.768H65.6v2.808h1.04a.5.5,0,0,1,.572.572Zm7.02,0C74.23-.52,74.75,0,75.972,0h3.146V-2.782h-1.04a.5.5,0,0,1-.572-.572V-16.692c0-1.222-.52-1.768-1.742-1.768H72.618v2.808h1.04a.5.5,0,0,1,.572.572ZM80.418-6.63a6.765,6.765,0,0,0,1.976,4.94,6.994,6.994,0,0,0,5.174,2,8.928,8.928,0,0,0,5.33-1.9L91.6-3.952A6.849,6.849,0,0,1,87.8-2.5a3.79,3.79,0,0,1-4-3.51H92.95a6.835,6.835,0,0,0,.1-1.274,6.533,6.533,0,0,0-1.56-4.5,5.406,5.406,0,0,0-4.316-1.794,6.522,6.522,0,0,0-4.888,1.95A6.829,6.829,0,0,0,80.418-6.63ZM83.9-8.268a3.2,3.2,0,0,1,3.2-2.808,2.6,2.6,0,0,1,2.652,2.808Zm12.09,3.406c0,2.678,1.3,3.926,2.782,4.5A6.77,6.77,0,0,0,101.5.13a5.851,5.851,0,0,0,1.04-.078V-2.834l-.6.052A3.467,3.467,0,0,1,100.1-3.3a2.186,2.186,0,0,1-.806-1.976v-5.356h3.016V-13.26H99.294v-3.614H96.1v3.614h-1.82v2.626h1.716Z" transform="translate(65 25.491)"/>
    <circle id="Ellipse_22" data-name="Ellipse 22" class="cls-1" cx="13.59" cy="13.59" r="13.59" transform="translate(1)"/>
    <circle id="Ellipse_23" data-name="Ellipse 23" class="cls-2" cx="13.59" cy="13.59" r="13.59" transform="translate(29.934)"/>
  </g>
</svg>
