<svg xmlns="http://www.w3.org/2000/svg" viewBox="0 0 164.256 51.213">
  <defs>
    <style>
      .cls-1 {
        fill: #070023;
      }

      .cls-2 {
        fill: none;
        stroke: #070023;
        stroke-width: 2px;
      }
    </style>
  </defs>
  <g id="_6" data-name="6" transform="translate(-1.539 -7.468)">
    <path id="Path_291" data-name="Path 291" class="cls-1" d="M2.262-20.532H16.037v4.176H6.786v4.176h8.555V-8H6.786V0H2.262Zm94.192,5.974L93.96-8.178h5.017Zm-1.74-5.974h3.741L107.387,0h-5.1l-1.769-4.35H92.539L90.828,0H85.84Z" transform="translate(0 28)"/>
    <path id="Path_290" data-name="Path 290" class="cls-1" d="M-81.461-20.532h4.524V0h-4.524Zm8.091,6.438h4.176v1.914h.058a3.525,3.525,0,0,1,.58-.812,4.218,4.218,0,0,1,.9-.725,5.14,5.14,0,0,1,1.189-.522,4.959,4.959,0,0,1,1.45-.2,5.991,5.991,0,0,1,2.668.507,3.858,3.858,0,0,1,1.581,1.407A5.689,5.689,0,0,1-60-10.411a16.077,16.077,0,0,1,.2,2.639V0h-4.35V-6.9q0-.609-.044-1.262a3.98,3.98,0,0,0-.261-1.2,2.077,2.077,0,0,0-.667-.9,2.072,2.072,0,0,0-1.29-.348,2.685,2.685,0,0,0-1.363.3,2.075,2.075,0,0,0-.8.812,3.319,3.319,0,0,0-.363,1.146,9.872,9.872,0,0,0-.087,1.334V0h-4.35Zm15.167,0h4.7l3.567,9.57h.058l3.306-9.57h4.379L-47.763,0h-4.611Zm27.26,5.452a2.518,2.518,0,0,0-.725-1.885,2.578,2.578,0,0,0-1.943-.783,3.267,3.267,0,0,0-1.276.232,3.2,3.2,0,0,0-.943.595,2.606,2.606,0,0,0-.609.841,2.769,2.769,0,0,0-.247,1Zm3.683,6.206A6.941,6.941,0,0,1-29.9-.377,7.905,7.905,0,0,1-33.2.348a8.883,8.883,0,0,1-3.059-.522,7.364,7.364,0,0,1-2.494-1.494A7.009,7.009,0,0,1-40.426-4a7.384,7.384,0,0,1-.609-3.045,7.384,7.384,0,0,1,.609-3.045,7.009,7.009,0,0,1,1.668-2.334,7.364,7.364,0,0,1,2.494-1.493,8.883,8.883,0,0,1,3.059-.522,6.96,6.96,0,0,1,2.741.522,5.706,5.706,0,0,1,2.088,1.493,6.8,6.8,0,0,1,1.319,2.334,9.409,9.409,0,0,1,.464,3.045v1.363H-36.685A3.443,3.443,0,0,0-35.554-3.7a3.2,3.2,0,0,0,2.146.74A3.267,3.267,0,0,0-31.6-3.437,4.873,4.873,0,0,0-30.3-4.669Zm11.281-7.511A3.08,3.08,0,0,0-18.5-11.136a2.373,2.373,0,0,0-1.073.261.923.923,0,0,0-.522.9.809.809,0,0,0,.536.769,7.1,7.1,0,0,0,1.363.435l1.769.406a6.647,6.647,0,0,1,1.769.681A3.959,3.959,0,0,1-13.3-6.424a3.763,3.763,0,0,1,.536,2.132,3.947,3.947,0,0,1-.594,2.247A4.56,4.56,0,0,1-14.877-.624a6.548,6.548,0,0,1-2.088.754,12.412,12.412,0,0,1-2.291.217,11.082,11.082,0,0,1-2.987-.42,5.581,5.581,0,0,1-2.552-1.493l2.639-2.929A4.378,4.378,0,0,0-20.807-3.35a3.635,3.635,0,0,0,1.726.391,4.032,4.032,0,0,0,1.363-.217.8.8,0,0,0,.609-.8.883.883,0,0,0-.537-.827,5.875,5.875,0,0,0-1.363-.464l-1.769-.406a7.309,7.309,0,0,1-1.769-.653A3.7,3.7,0,0,1-23.91-7.555a3.763,3.763,0,0,1-.536-2.132,4.3,4.3,0,0,1,.507-2.146,4.459,4.459,0,0,1,1.334-1.479,5.772,5.772,0,0,1,1.9-.856,8.712,8.712,0,0,1,2.175-.275,10.2,10.2,0,0,1,2.813.406,5.217,5.217,0,0,1,2.407,1.45Zm15.051-.667H-4.756v4.7A8.842,8.842,0,0,0-4.7-4.858a2.133,2.133,0,0,0,.261.826,1.319,1.319,0,0,0,.623.537A2.765,2.765,0,0,0-2.7-3.306a7.52,7.52,0,0,0,.913-.072,1.548,1.548,0,0,0,.855-.333V-.087A6.582,6.582,0,0,1-2.436.261,13.913,13.913,0,0,1-3.973.348,8.362,8.362,0,0,1-6,.116a4.63,4.63,0,0,1-1.624-.74,3.464,3.464,0,0,1-1.087-1.32,4.511,4.511,0,0,1-.392-1.972v-6.7H-11.89v-3.48h2.784V-18.27h4.35v4.176H-.928Zm2.2-3.48H5.452v1.914H5.51a3.525,3.525,0,0,1,.58-.812,4.218,4.218,0,0,1,.9-.725,5.14,5.14,0,0,1,1.189-.522,4.96,4.96,0,0,1,1.45-.2,5.505,5.505,0,0,1,2.624.609,3.856,3.856,0,0,1,1.726,1.914,4.7,4.7,0,0,1,1.827-1.943,5.491,5.491,0,0,1,2.639-.58,5.384,5.384,0,0,1,2.392.478,3.914,3.914,0,0,1,1.537,1.305,5.5,5.5,0,0,1,.812,1.943,11.083,11.083,0,0,1,.247,2.392V0h-4.35V-8.207a3.272,3.272,0,0,0-.421-1.7,1.589,1.589,0,0,0-1.493-.71,2.877,2.877,0,0,0-1.262.247,2.078,2.078,0,0,0-.812.681,2.834,2.834,0,0,0-.435,1.015,5.534,5.534,0,0,0-.13,1.218V0h-4.35V-7.453q0-.377-.029-.928a3.705,3.705,0,0,0-.2-1.044,2,2,0,0,0-.566-.841,1.674,1.674,0,0,0-1.145-.348,2.685,2.685,0,0,0-1.363.3,2.075,2.075,0,0,0-.8.812,3.319,3.319,0,0,0-.362,1.146,9.871,9.871,0,0,0-.087,1.334V0H1.276ZM36.163-8.642a2.518,2.518,0,0,0-.725-1.885A2.578,2.578,0,0,0,33.5-11.31a3.267,3.267,0,0,0-1.276.232,3.2,3.2,0,0,0-.942.595,2.606,2.606,0,0,0-.609.841,2.769,2.769,0,0,0-.247,1Zm3.683,6.206A6.941,6.941,0,0,1,37.207-.377,7.905,7.905,0,0,1,33.9.348a8.883,8.883,0,0,1-3.059-.522,7.364,7.364,0,0,1-2.494-1.494A7.009,7.009,0,0,1,26.68-4a7.384,7.384,0,0,1-.609-3.045,7.384,7.384,0,0,1,.609-3.045,7.009,7.009,0,0,1,1.667-2.334,7.364,7.364,0,0,1,2.494-1.493,8.883,8.883,0,0,1,3.059-.522,6.96,6.96,0,0,1,2.741.522,5.706,5.706,0,0,1,2.088,1.493,6.8,6.8,0,0,1,1.319,2.334,9.41,9.41,0,0,1,.464,3.045v1.363H30.421A3.443,3.443,0,0,0,31.552-3.7a3.2,3.2,0,0,0,2.146.74,3.267,3.267,0,0,0,1.813-.479A4.873,4.873,0,0,0,36.8-4.669Zm3.306-11.658h4.176v1.914h.058a3.525,3.525,0,0,1,.58-.812,4.218,4.218,0,0,1,.9-.725,5.14,5.14,0,0,1,1.189-.522,4.96,4.96,0,0,1,1.45-.2,5.991,5.991,0,0,1,2.668.507,3.858,3.858,0,0,1,1.581,1.407,5.689,5.689,0,0,1,.768,2.117,16.077,16.077,0,0,1,.2,2.639V0h-4.35V-6.9q0-.609-.044-1.262a3.98,3.98,0,0,0-.261-1.2,2.077,2.077,0,0,0-.667-.9,2.072,2.072,0,0,0-1.29-.348,2.685,2.685,0,0,0-1.363.3,2.075,2.075,0,0,0-.8.812,3.319,3.319,0,0,0-.363,1.146A9.872,9.872,0,0,0,47.5-7.018V0h-4.35ZM69.4-10.614H65.569v4.7a8.843,8.843,0,0,0,.058,1.059,2.133,2.133,0,0,0,.261.826,1.319,1.319,0,0,0,.623.537,2.765,2.765,0,0,0,1.117.188,7.52,7.52,0,0,0,.914-.072,1.548,1.548,0,0,0,.855-.333V-.087a6.582,6.582,0,0,1-1.508.348,13.913,13.913,0,0,1-1.537.087,8.362,8.362,0,0,1-2.03-.232A4.63,4.63,0,0,1,62.7-.624a3.464,3.464,0,0,1-1.088-1.32,4.511,4.511,0,0,1-.391-1.972v-6.7H58.435v-3.48h2.784V-18.27h4.35v4.176H69.4Zm10.179.667a3.08,3.08,0,0,0-2.523-1.189,2.373,2.373,0,0,0-1.073.261.923.923,0,0,0-.522.9.809.809,0,0,0,.537.769,7.1,7.1,0,0,0,1.363.435l1.769.406a6.647,6.647,0,0,1,1.769.681,3.959,3.959,0,0,1,1.363,1.262,3.763,3.763,0,0,1,.537,2.132A3.947,3.947,0,0,1,82.2-2.045,4.56,4.56,0,0,1,80.678-.624,6.548,6.548,0,0,1,78.59.131,12.412,12.412,0,0,1,76.3.348a11.082,11.082,0,0,1-2.987-.42A5.581,5.581,0,0,1,70.76-1.566L73.4-4.495A4.378,4.378,0,0,0,74.747-3.35a3.635,3.635,0,0,0,1.726.391,4.032,4.032,0,0,0,1.363-.217.8.8,0,0,0,.609-.8.883.883,0,0,0-.537-.827,5.875,5.875,0,0,0-1.363-.464L74.776-5.67a7.309,7.309,0,0,1-1.769-.653,3.7,3.7,0,0,1-1.363-1.233,3.763,3.763,0,0,1-.536-2.132,4.3,4.3,0,0,1,.507-2.146,4.459,4.459,0,0,1,1.334-1.479,5.772,5.772,0,0,1,1.9-.856,8.712,8.712,0,0,1,2.175-.275,10.2,10.2,0,0,1,2.813.406,5.217,5.217,0,0,1,2.407,1.45Z" transform="translate(83 58.333)"/>
    <line id="Line_54" data-name="Line 54" class="cls-2" x2="57.474" y2="0.268" transform="translate(26.342 18.091)"/>
  </g>
</svg>
