<svg xmlns="http://www.w3.org/2000/svg" viewBox="0 0 130.9 52.852">
  <defs>
    <style>
      .cls-1 {
        fill: #070023;
      }
    </style>
  </defs>
  <g id="_9" data-name="9" transform="translate(15.33 11.062)">
    <path id="Path_301" data-name="Path 301" class="cls-1" d="M16.8-3.052A8.461,8.461,0,0,1,11.452-1.2c-4.9,0-8.316-3.444-8.316-8.6,0-4.956,3.248-8.6,8.008-8.6a8.139,8.139,0,0,1,5.18,1.54L17.052-18a9.015,9.015,0,0,0-5.936-1.848c-5.908,0-9.6,4.424-9.6,10.052,0,6.1,4,10.052,9.828,10.052A8.965,8.965,0,0,0,17.416-1.9ZM28.756,0V-8.232h3.808L39.088,0h1.9l-6.86-8.54A5.607,5.607,0,0,0,38.78-14c0-3-1.512-5.656-6.86-5.656-.56,0-3.612.056-4.7.056V0Zm3.08-18.2c3.976,0,5.32,1.82,5.32,4.2,0,2.6-2.52,4.312-5.012,4.312H28.756v-8.456C29.68-18.172,31.248-18.2,31.836-18.2ZM62.16-19.6H60.452L54.4-10.024,48.384-19.6H46.592L53.564-8.568V0H55.1V-8.568ZM72.94,0V-7.868c1.12.084,2.324.112,3.248.112,4.872,0,6.972-2.94,6.972-5.992,0-2.912-1.54-5.908-6.972-5.908-1.12,0-3.7.056-4.788.056V0Zm3.388-18.2c3.7,0,5.208,1.876,5.208,4.424,0,2.688-1.848,4.564-5.4,4.564-1.12,0-2.1-.056-3.192-.14v-8.792C73.864-18.172,75.46-18.2,76.328-18.2Zm13.8.056h7.252V0h1.54V-18.144h7.252V-19.6H90.132ZM112.756-9.8A9.671,9.671,0,0,0,122.584.252,9.72,9.72,0,0,0,132.412-9.8a9.671,9.671,0,0,0-9.828-10.052A9.719,9.719,0,0,0,112.756-9.8Zm1.624,0c0-4.956,3.556-8.6,8.2-8.6,4.62,0,8.2,3.64,8.2,8.6,0,4.872-3.416,8.6-8.2,8.6A8.257,8.257,0,0,1,114.38-9.8ZM2.52,33H7V20.6l5.432,7.56h.644l5.46-7.644V33h4.48V13.4H18.788l-5.712,8.26L7.028,13.4H2.52Zm28.756,0h4.508l1.624-4.116h7.756L46.788,33h4.788L43.428,13.4h-4ZM41.3,19.14l2.184,5.544h-4.4ZM76.916,33V13.4h-4.2V25.216L63.42,13.4H59.836V33h4.2V21.24L73.332,33Zm11.06,0h4.48V13.4h-4.48ZM101,33H105.5l1.624-4.116h7.756L116.508,33H121.3l-8.148-19.6h-4ZM111.02,19.14l2.184,5.544h-4.4Z" transform="translate(-16.842 8.79)"/>
  </g>
</svg>
