<svg xmlns="http://www.w3.org/2000/svg" viewBox="0 0 152.082 21.038">
  <defs>
    <style>
      .cls-1 {
        fill: #f20127;
      }

      .cls-2 {
        fill: #fff;
      }
    </style>
  </defs>
  <g id="logo" transform="translate(-255.748 -44.981)">
    <ellipse id="Ellipse_227" data-name="Ellipse 227" class="cls-1" cx="10.519" cy="10.519" rx="10.519" ry="10.519" transform="translate(386.793 44.981)"/>
    <ellipse id="Ellipse_1" data-name="Ellipse 1" class="cls-2" cx="10.519" cy="10.519" rx="10.519" ry="10.519" transform="translate(374.17 44.981)"/>
    <path id="Path_287" data-name="Path 287" class="cls-2" d="M3.047-2.1a7.56,7.56,0,0,1-2.3-5.665,7.56,7.56,0,0,1,2.3-5.665,7.763,7.763,0,0,1,5.621-2.233A7.934,7.934,0,0,1,13.244-14.3a7.11,7.11,0,0,1,2.794,3.784H11.55A2.955,2.955,0,0,0,8.734-12.21,3.931,3.931,0,0,0,5.687-11,4.6,4.6,0,0,0,4.576-7.766,4.6,4.6,0,0,0,5.687-4.532a3.931,3.931,0,0,0,3.047,1.21A2.955,2.955,0,0,0,11.55-5.016h4.488a7.11,7.11,0,0,1-2.794,3.784A7.934,7.934,0,0,1,8.668.132,7.763,7.763,0,0,1,3.047-2.1Zm19.173-3.9V0H18.458V-15.444h6.094a5.918,5.918,0,0,1,4.18,1.386,4.4,4.4,0,0,1,1.5,3.344A4.811,4.811,0,0,1,29.414-8.1a4.443,4.443,0,0,1-2.662,1.8L30.536,0h-4.4L22.66-6.006Zm0-6.578v3.718h2.332a1.806,1.806,0,0,0,1.353-.506,1.822,1.822,0,0,0,.5-1.331,1.875,1.875,0,0,0-.506-1.353,1.773,1.773,0,0,0-1.342-.528ZM40.942,0H37.18V-4.972L31.834-15.444H36.1l2.97,6.974,2.948-6.974h4.268L40.942-4.972Zm19.1-10.714A4.872,4.872,0,0,1,58.916-7.7a4.2,4.2,0,0,1-1.771,1.221,7.444,7.444,0,0,1-2.783.473H52.03V0H48.268V-15.444h6.094a5.918,5.918,0,0,1,4.18,1.386A4.4,4.4,0,0,1,60.038-10.714ZM52.03-8.866h2.332a1.806,1.806,0,0,0,1.353-.506A1.822,1.822,0,0,0,56.21-10.7a1.875,1.875,0,0,0-.506-1.353,1.773,1.773,0,0,0-1.342-.528H52.03Zm9.218-3.718v-2.86H73.436v2.86H69.212V0H65.45V-12.584ZM85.657-4.532a4.6,4.6,0,0,0,1.111-3.234A4.6,4.6,0,0,0,85.657-11a3.837,3.837,0,0,0-2.97-1.21A3.837,3.837,0,0,0,79.717-11a4.6,4.6,0,0,0-1.111,3.234,4.6,4.6,0,0,0,1.111,3.234,3.837,3.837,0,0,0,2.97,1.21A3.837,3.837,0,0,0,85.657-4.532ZM77.077-2.09a7.6,7.6,0,0,1-2.3-5.676,7.561,7.561,0,0,1,2.3-5.665,7.776,7.776,0,0,1,5.632-2.233,7.7,7.7,0,0,1,5.61,2.233A7.6,7.6,0,0,1,90.6-7.766,7.615,7.615,0,0,1,88.308-2.09,7.705,7.705,0,0,1,82.7.154,7.742,7.742,0,0,1,77.077-2.09Zm29.4-13.354L101.6-7.7,106.458,0H102.19L99.352-4.488,96.734,0H92.466l4.862-7.722-4.862-7.722h4.268l2.838,4.51,2.64-4.51Z" transform="translate(255 64)"/>
  </g>
</svg>
